Coordinates
version=1
nRows=6
nColumns=34
inDegrees=yes

Units are S.I. units (second, meters, Newtons, ...)
If the header above contains a line with 'inDegrees', this indicates whether rotational values are in degrees (yes) or radians (no).

endheader
time	pelvis_tilt	pelvis_list	pelvis_rotation	pelvis_tx	pelvis_ty	pelvis_tz	hip_flexion_r	hip_adduction_r	hip_rotation_r	knee_angle_r	ankle_angle_r	subtalar_angle_r	mtp_angle_r	hip_flexion_l	hip_adduction_l	hip_rotation_l	knee_angle_l	ankle_angle_l	subtalar_angle_l	mtp_angle_l	lumbar_extension	lumbar_bending	lumbar_rotation	arm_flex_r	arm_add_r	arm_rot_r	elbow_flex_r	pro_sup_r	arm_flex_l	arm_add_l	arm_rot_l	elbow_flex_l	pro_sup_l
      5.96666670	     13.83852716	    -22.96669434	    -46.67216428	      0.24519104	      0.46312063	     -0.09892471	     81.67787820	     -4.61654149	      4.53536959	    115.44887602	     14.15065316	     -0.49179064	      0.00000000	     84.68097832	     -9.98514790	     15.15564514	    119.42321173	     17.63116486	     -0.96400554	      0.00000000	    -47.31929823	     -5.16613042	      1.40658099	     55.48322606	     -6.57340914	     10.38065295	     41.68368102	    119.74817918	     57.34146542	     -7.94782562	     14.04209294	     42.51409457	    119.74817918
      5.98333330	     13.87280988	    -22.96815134	    -46.67699910	      0.24487991	      0.46282564	     -0.09903171	     81.71734228	     -4.61954580	      4.52720274	    115.47792664	     14.15366942	     -0.49473712	      0.00000000	     84.69040840	     -9.99747527	     15.14507086	    119.40328516	     17.62829196	     -0.96079227	      0.00000000	    -47.37282557	     -5.13571923	      1.42320419	     55.47341237	     -6.54215916	     10.38350355	     41.67960789	    119.74817918	     57.29108675	     -7.92311657	     14.04568818	     42.49045401	    119.74817918
      6.00000000	     13.97065679	    -23.00881641	    -46.68452041	      0.24502672	      0.46261440	     -0.09892342	     81.68549412	     -4.66430476	      4.55255255	    115.56818910	     14.09374992	     -0.44339554	      0.00000000	     84.61241758	    -10.06029588	     15.09213827	    119.44887636	     17.55769659	     -0.88914674	      0.00000000	    -47.36932156	     -5.08904511	      1.40789785	     55.53308358	     -6.34214586	     10.27198644	     41.30292998	    119.74817918	     57.28878474	     -7.69648387	     13.78278373	     41.87940173	    119.74817918
      6.01666670	     13.98660052	    -23.00460985	    -46.69641912	      0.24489153	      0.46243961	     -0.09898569	     81.71556258	     -4.66187346	      4.54810200	    115.58998112	     14.09655748	     -0.44555969	      0.00000000	     84.61725646	    -10.06244982	     15.08241500	    119.42823020	     17.55512302	     -0.88644863	      0.00000000	    -47.41646399	     -5.06188937	      1.41751360	     55.52354649	     -6.31985865	     10.27728873	     41.29067944	    119.74817918	     57.25951173	     -7.67863897	     13.78732719	     41.85397150	    119.74817918
      6.03333330	     14.04102407	    -23.02953444	    -46.71188922	      0.24493120	      0.46239239	     -0.09899714	     81.70373527	     -4.67981437	      4.57066756	    115.64242686	     14.03330564	     -0.40497650	      0.00000000	     84.56620098	    -10.08578448	     15.04117740	    119.43821745	     17.47748116	     -0.88576779	      0.00000000	    -47.40213935	     -4.99646242	      1.39468252	     55.71420824	     -6.11545956	     10.33059568	     40.62844262	    119.74817918	     57.41193742	     -7.46339293	     13.70021977	     40.91636438	    119.74817918
      6.05000000	     14.04780204	    -23.02194444	    -46.73654961	      0.24481781	      0.46237328	     -0.09904801	     81.73341722	     -4.67477996	      4.56615276	    115.65990685	     14.03675287	     -0.40749572	      0.00000000	     84.56498754	    -10.08139453	     15.03093750	    119.41830819	     17.47478696	     -0.88366343	      0.00000000	    -47.44717752	     -4.96501096	      1.39453895	     55.70238770	     -6.10738030	     10.33554609	     40.61402465	    119.74817918	     57.39733304	     -7.45458070	     13.70550125	     40.89660223	    119.74817918
